<svg width="64" height="64" viewBox="0 0 64 64" fill="none" xmlns="http://www.w3.org/2000/svg">
<g clip-path="url(#clip0_7_1391)">
<path d="M1.90332 35.896C1.90332 47.9169 11.8488 50.9221 16.8202 50.9221H43.9417C48.0099 50.9221 56.1464 48.4633 56.1464 38.628C56.1464 28.7928 48.0099 26.3339 43.9417 26.3339C43.9417 22.2359 39.8735 12.6738 30.3809 12.6738C22.7869 12.6738 18.1762 18.1379 16.8202 20.8699C11.8488 20.8699 1.90332 23.8751 1.90332 35.896Z" stroke="#054380" stroke-width="4.17254" stroke-linecap="round" stroke-linejoin="round"/>
<path d="M42.9336 40.5566C42.9336 37.3361 46.385 35.2818 49.208 36.8555V36.8564L60.9326 43.3975H60.9316C61.5911 43.7599 62.1384 44.2962 62.5186 44.9453C62.9005 45.5977 63.1006 46.3418 63.1006 47.0977C63.1006 47.8536 62.9006 48.5976 62.5186 49.25C62.1363 49.9027 61.5852 50.4412 60.9209 50.8037L60.9199 50.8027L49.208 57.3379C46.3848 58.9128 42.9339 56.8579 42.9336 53.6396V40.5566Z" fill="#054380" stroke="white" stroke-width="2.7817"/>
</g>
<defs>
<clipPath id="clip0_7_1391">
<rect width="63.2903" height="63.2903" fill="white" transform="translate(0.161133 0.0317383)"/>
</clipPath>
</defs>
</svg>
