<svg width="47" height="69" viewBox="0 0 47 69" fill="none" xmlns="http://www.w3.org/2000/svg">
<path d="M0.778659 41.332C0.664841 46.3606 46.8 53.7479 46.7686 61.5756L46.7506 28.4741C46.6323 22.0669 0.530057 15.9725 0.801123 8.79565L0.777161 41.332H0.778659Z" fill="url(#paint0_linear_1_130)"/>
<path d="M6.61177 52.9836L43.6894 68.1446C45.1406 68.7414 46.776 67.7853 46.7685 66.3466C46.7685 66.3466 46.7461 28.4104 46.7446 28.3773C46.7446 29.5499 45.56 30.6233 43.5217 31.5493L6.46651 49.4313C4.87006 50.201 4.95542 52.3026 6.61177 52.9836Z" fill="url(#paint1_linear_1_130)"/>
<path style="mix-blend-mode:multiply" opacity="0.43" d="M0.775085 41.3882C1.77848 39.6849 26.3871 30.5222 43.0914 25.0411C41.8289 24.3646 39.4342 23.2401 35.9972 21.8931C24.283 17.302 2.92415 12.1937 0.784071 9.76587L0.775085 41.3882Z" fill="url(#paint2_linear_1_130)"/>
<path d="M40.754 16.1891L3.71376 0.957441C2.26857 0.360624 0.637679 1.31523 0.645167 2.75541L0.773961 41.326C0.769468 39.7551 1.94958 38.5374 3.97883 37.6113L40.8993 19.7414C42.4897 18.9717 42.4043 16.8716 40.754 16.1891Z" fill="url(#paint3_linear_1_130)"/>
<defs>
<linearGradient id="paint0_linear_1_130" x1="-0.937956" y1="25.4614" x2="43.3487" y2="42.5915" gradientUnits="userSpaceOnUse">
<stop stop-color="#0040D3"/>
<stop offset="1" stop-color="#00FFD3"/>
</linearGradient>
<linearGradient id="paint1_linear_1_130" x1="77.4993" y1="69.3699" x2="106.243" y2="71.1099" gradientUnits="userSpaceOnUse">
<stop offset="0.17" stop-color="white"/>
<stop offset="0.2" stop-color="#F9FBFC"/>
<stop offset="0.25" stop-color="#E9F2F5"/>
<stop offset="0.3" stop-color="#CFE2E9"/>
<stop offset="0.36" stop-color="#ABCDD8"/>
<stop offset="0.42" stop-color="#7DB1C3"/>
<stop offset="0.46" stop-color="#559AB1"/>
</linearGradient>
<linearGradient id="paint2_linear_1_130" x1="13.7062" y1="10.8595" x2="17.1836" y2="20.233" gradientUnits="userSpaceOnUse">
<stop stop-color="#3995C5"/>
<stop offset="1" stop-color="#5374A2"/>
</linearGradient>
<linearGradient id="paint3_linear_1_130" x1="2.68451" y1="17.2928" x2="-26.1196" y2="15.5089" gradientUnits="userSpaceOnUse">
<stop offset="0.17" stop-color="white"/>
<stop offset="0.2" stop-color="#F9FBFC"/>
<stop offset="0.25" stop-color="#E9F2F5"/>
<stop offset="0.3" stop-color="#CFE2E9"/>
<stop offset="0.36" stop-color="#ABCDD8"/>
<stop offset="0.42" stop-color="#7DB1C3"/>
<stop offset="0.46" stop-color="#559AB1"/>
</linearGradient>
</defs>
</svg>
