<svg width="54" height="52" viewBox="0 0 54 52" fill="none" xmlns="http://www.w3.org/2000/svg">
<path d="M17.3954 4.50685L53.8131 0.816528V37.7198C53.8131 40.389 52.7666 42.949 50.904 44.8364C49.0414 46.7239 46.5151 47.7843 43.881 47.7843C41.2468 47.7843 38.7205 46.7239 36.8579 44.8364C34.9953 42.949 33.9489 40.389 33.9489 37.7198C33.9489 35.0505 34.9953 32.4905 36.8579 30.6031C38.7205 28.7156 41.2468 27.6552 43.881 27.6552C46.4302 27.6552 48.7477 28.6281 50.5024 30.2049V14.3701L20.7061 17.7249V41.0746C20.7061 43.7439 19.6597 46.3038 17.7971 48.1913C15.9344 50.0787 13.4082 51.1391 10.774 51.1391C8.13985 51.1391 5.61359 50.0787 3.75096 48.1913C1.88833 46.3038 0.841919 43.7439 0.841919 41.0746C0.841919 38.4053 1.88833 35.8454 3.75096 33.9579C5.61359 32.0704 8.13985 31.0101 10.774 31.0101C13.3232 31.0101 15.6407 31.983 17.3954 33.5598V4.50685ZM20.7061 7.52621V14.3365L50.5024 11.0152V4.4733L20.7061 7.52621ZM17.3954 41.0746C17.3954 39.2951 16.6978 37.5884 15.456 36.3301C14.2143 35.0718 12.5301 34.3649 10.774 34.3649C9.0179 34.3649 7.33373 35.0718 6.09198 36.3301C4.85022 37.5884 4.15261 39.2951 4.15261 41.0746C4.15261 42.8541 4.85022 44.5607 6.09198 45.819C7.33373 47.0774 9.0179 47.7843 10.774 47.7843C12.5301 47.7843 14.2143 47.0774 15.456 45.819C16.6978 44.5607 17.3954 42.8541 17.3954 41.0746ZM50.5024 37.7198C50.5024 35.9402 49.8047 34.2336 48.563 32.9753C47.3212 31.717 45.6371 31.0101 43.881 31.0101C42.1249 31.0101 40.4407 31.717 39.1989 32.9753C37.9572 34.2336 37.2596 35.9402 37.2596 37.7198C37.2596 39.4993 37.9572 41.2059 39.1989 42.4642C40.4407 43.7225 42.1249 44.4294 43.881 44.4294C45.6371 44.4294 47.3212 43.7225 48.563 42.4642C49.8047 41.2059 50.5024 39.4993 50.5024 37.7198Z" fill="#054380"/>
</svg>
