<svg width="40" height="65" viewBox="0 0 40 65" fill="none" xmlns="http://www.w3.org/2000/svg">
<path d="M31.8951 4.90826C32.9488 4.90826 33.9593 5.32683 34.7043 6.07188C35.4494 6.81693 35.8679 7.82743 35.8679 8.8811V56.5551C35.8679 57.6088 35.4494 58.6193 34.7043 59.3643C33.9593 60.1094 32.9488 60.528 31.8951 60.528H8.0581C7.00444 60.528 5.99393 60.1094 5.24888 59.3643C4.50383 58.6193 4.08526 57.6088 4.08526 56.5551V8.8811C4.08526 7.82743 4.50383 6.81693 5.24888 6.07188C5.99393 5.32683 7.00444 4.90826 8.0581 4.90826H31.8951ZM8.0581 0.935425C5.95077 0.935425 3.92976 1.77256 2.43966 3.26266C0.949557 4.75276 0.112427 6.77377 0.112427 8.8811V56.5551C0.112427 58.6624 0.949557 60.6835 2.43966 62.1736C3.92976 63.6637 5.95077 64.5008 8.0581 64.5008H31.8951C34.0024 64.5008 36.0234 63.6637 37.5135 62.1736C39.0036 60.6835 39.8408 58.6624 39.8408 56.5551V8.8811C39.8408 6.77377 39.0036 4.75276 37.5135 3.26266C36.0234 1.77256 34.0024 0.935425 31.8951 0.935425L8.0581 0.935425Z" fill="#054380"/>
<path d="M19.9766 56.5553C21.0303 56.5553 22.0408 56.1367 22.7858 55.3917C23.5309 54.6466 23.9495 53.6361 23.9495 52.5825C23.9495 51.5288 23.5309 50.5183 22.7858 49.7732C22.0408 49.0282 21.0303 48.6096 19.9766 48.6096C18.923 48.6096 17.9125 49.0282 17.1674 49.7732C16.4224 50.5183 16.0038 51.5288 16.0038 52.5825C16.0038 53.6361 16.4224 54.6466 17.1674 55.3917C17.9125 56.1367 18.923 56.5553 19.9766 56.5553Z" fill="#054380"/>
</svg>
