<svg width="54" height="58" viewBox="0 0 54 58" fill="none" xmlns="http://www.w3.org/2000/svg">
<path fill-rule="evenodd" clip-rule="evenodd" d="M26.9766 18.7217C24.3425 18.7217 21.8162 19.7681 19.9536 21.6307C18.091 23.4933 17.0446 26.0196 17.0446 28.6538C17.0446 31.2879 18.091 33.8142 19.9536 35.6768C21.8162 37.5394 24.3425 38.5859 26.9766 38.5859C29.6108 38.5859 32.1371 37.5394 33.9997 35.6768C35.8623 33.8142 36.9087 31.2879 36.9087 28.6538C36.9087 26.0196 35.8623 23.4933 33.9997 21.6307C32.1371 19.7681 29.6108 18.7217 26.9766 18.7217ZM21.0174 28.6538C21.0174 27.0733 21.6452 25.5575 22.7628 24.4399C23.8804 23.3224 25.3962 22.6945 26.9766 22.6945C28.5571 22.6945 30.0729 23.3224 31.1905 24.4399C32.308 25.5575 32.9359 27.0733 32.9359 28.6538C32.9359 30.2343 32.308 31.75 31.1905 32.8676C30.0729 33.9852 28.5571 34.613 26.9766 34.613C25.3962 34.613 23.8804 33.9852 22.7628 32.8676C21.6452 31.75 21.0174 30.2343 21.0174 28.6538Z" fill="#054380"/>
<path fill-rule="evenodd" clip-rule="evenodd" d="M26.9097 0.181641C25.7311 0.181641 24.7484 0.181641 23.9433 0.234612C23.1203 0.268883 22.3086 0.438916 21.541 0.737838C20.6571 1.10358 19.8538 1.63987 19.1772 2.31608C18.5005 2.99229 17.9637 3.79518 17.5973 4.67889C17.2133 5.60589 17.11 6.58585 17.0676 7.65057C17.0634 8.03997 16.9603 8.4219 16.768 8.76055C16.5758 9.0992 16.3007 9.38346 15.9685 9.58667C15.6265 9.7734 15.2427 9.87015 14.853 9.86783C14.4634 9.86552 14.0808 9.76421 13.741 9.57342C12.7982 9.0755 11.8976 8.67556 10.9018 8.54314C9.95345 8.4184 8.98984 8.48167 8.06596 8.72934C7.14209 8.97701 6.27604 9.40423 5.51727 9.9866C4.87572 10.5027 4.32361 11.1211 3.88311 11.8168C3.43285 12.4895 2.94022 13.3397 2.35224 14.3594L2.28603 14.4759C1.6954 15.4956 1.20542 16.3458 0.850511 17.0715C0.479713 17.829 0.188372 18.5759 0.08243 19.4022C-0.170242 21.3171 0.348026 23.2539 1.52325 24.7867C2.13506 25.584 2.93228 26.164 3.83279 26.7308C4.16852 26.9293 4.44823 27.2099 4.64561 27.5463C4.84299 27.8827 4.95155 28.2637 4.96107 28.6536C4.95155 29.0435 4.84299 29.4246 4.64561 29.761C4.44823 30.0974 4.16852 30.378 3.83279 30.5765C2.93228 31.1433 2.13771 31.7233 1.52325 32.5205C0.940872 33.2793 0.513653 34.1453 0.265983 35.0692C0.0183129 35.9931 -0.0449583 36.9567 0.0797816 37.905C0.188372 38.7314 0.477065 39.4783 0.847863 40.2358C1.20542 40.9615 1.6954 41.8117 2.28603 42.8314L2.35224 42.9479C2.94022 43.9676 3.43285 44.8178 3.88311 45.4905C4.3519 46.1871 4.85513 46.8148 5.51727 47.318C6.27584 47.9009 7.1418 48.3285 8.06568 48.5767C8.98956 48.8248 9.95328 48.8885 10.9018 48.7641C11.8976 48.6317 12.7982 48.2344 13.741 47.7338C14.0804 47.5433 14.4626 47.4421 14.8517 47.4398C15.2409 47.4375 15.6243 47.5341 15.9658 47.7206C16.2999 47.9222 16.5767 48.206 16.77 48.5449C16.9634 48.8838 17.0667 49.2665 17.0703 49.6567C17.11 50.7214 17.2133 51.7014 17.6 52.6284C17.9657 53.5123 18.502 54.3156 19.1782 54.9922C19.8544 55.6689 20.6573 56.2057 21.541 56.5721C22.3091 56.8899 23.1037 57.0144 23.9433 57.07C24.7484 57.1256 25.7311 57.1256 26.9097 57.1256H27.0421C28.2207 57.1256 29.2033 57.1256 30.0085 57.0726C30.8507 57.0144 31.6426 56.8899 32.4107 56.5694C33.2947 56.2037 34.0979 55.6674 34.7746 54.9912C35.4513 54.315 35.9881 53.5121 36.3544 52.6284C36.7385 51.7014 36.8418 50.7214 36.8841 49.6567C36.8879 49.2668 36.9908 48.8844 37.1831 48.5452C37.3753 48.2061 37.6507 47.9214 37.9833 47.7179C38.3255 47.5316 38.7094 47.4353 39.099 47.4381C39.4887 47.4409 39.8712 47.5426 40.2107 47.7338C41.1536 48.2318 42.0541 48.6317 43.05 48.7615C44.9648 49.0141 46.9017 48.4959 48.4345 47.3207C49.0966 46.8121 49.5998 46.1871 50.0686 45.4905C50.5189 44.8178 51.0115 43.9676 51.5995 42.9479L51.6657 42.8314C52.2564 41.8117 52.7463 40.9615 53.1012 40.2358C53.472 39.4783 53.7634 38.7287 53.8693 37.905C54.122 35.9902 53.6037 34.0533 52.4285 32.5205C51.8167 31.7233 51.0195 31.1433 50.119 30.5765C49.7832 30.378 49.5035 30.0974 49.3061 29.761C49.1088 29.4246 49.0002 29.0435 48.9907 28.6536C48.9907 27.9173 49.3933 27.1863 50.119 26.7308C51.0195 26.164 51.814 25.584 52.4285 24.7867C53.0109 24.028 53.4381 23.1619 53.6858 22.238C53.9334 21.3142 53.9967 20.3505 53.872 19.4022C53.7459 18.5883 53.4864 17.8009 53.1039 17.0715C52.6517 16.1915 52.1721 15.3259 51.6657 14.4759L51.5995 14.3594C51.1157 13.4962 50.6052 12.6482 50.0686 11.8168C49.6282 11.1218 49.076 10.5044 48.4345 9.98925C47.6759 9.40641 46.81 8.97872 45.8861 8.73059C44.9622 8.48246 43.9985 8.41877 43.05 8.54314C42.0541 8.67556 41.1536 9.07285 40.2107 9.57342C39.8713 9.76374 39.4891 9.86478 39.1 9.8671C38.7109 9.86942 38.3276 9.77293 37.9859 9.58667C37.6527 9.3841 37.3766 9.10011 37.1834 8.76142C36.9902 8.42273 36.8863 8.04047 36.8815 7.65057C36.8417 6.58585 36.7385 5.60589 36.3518 4.67889C35.986 3.79493 35.4497 2.99168 34.7735 2.31502C34.0973 1.63835 33.2944 1.10152 32.4107 0.735189C31.6426 0.417362 30.8481 0.29288 30.0085 0.23726C29.2033 0.181641 28.2207 0.181641 27.0421 0.181641H26.9097ZM23.0613 4.40609C23.2652 4.32134 23.5751 4.24453 24.2134 4.1995C24.8676 4.15448 25.7152 4.15448 26.9759 4.15448C28.2366 4.15448 29.0841 4.15448 29.7383 4.1995C30.3766 4.24453 30.6865 4.32134 30.8904 4.40609C31.7035 4.74246 32.3471 5.38606 32.6835 6.19916C32.7895 6.45342 32.8769 6.85336 32.9113 7.79889C32.9907 9.89655 34.074 11.9174 35.9969 13.0271C37.9197 14.1395 40.2107 14.0654 42.0674 13.0854C42.9043 12.6431 43.2936 12.5186 43.5691 12.4842C44.4393 12.3692 45.3196 12.6045 46.0163 13.1384C46.1912 13.2735 46.4136 13.5039 46.7712 14.0336C47.1393 14.5792 47.5631 15.3128 48.1935 16.4041C48.8238 17.4953 49.2449 18.2316 49.5336 18.8195C49.817 19.3943 49.9044 19.7015 49.9309 19.9213C50.0459 20.7916 49.8106 21.6718 49.2767 22.3686C49.1072 22.5884 48.8053 22.8639 48.0054 23.3671C46.2256 24.4848 45.0178 26.4341 45.0178 28.6536C45.0178 30.8731 46.2256 32.8225 48.0054 33.9402C48.8053 34.4434 49.1072 34.7188 49.2767 34.9387C49.8117 35.6352 50.0448 36.5145 49.9309 37.3859C49.9044 37.6058 49.8144 37.9156 49.5336 38.4877C49.2449 39.0784 48.8238 39.812 48.1935 40.9032C47.5631 41.9944 47.1367 42.7281 46.7712 43.2737C46.4136 43.8034 46.1912 44.0338 46.0163 44.1689C45.3196 44.7028 44.4393 44.9381 43.5691 44.8231C43.2936 44.7886 42.9069 44.6642 42.0674 44.2219C40.2134 43.2419 37.9197 43.1677 35.9969 44.2775C34.074 45.3899 32.9907 47.4107 32.9113 49.5084C32.8769 50.4539 32.7895 50.8538 32.6835 51.1081C32.5171 51.5101 32.2731 51.8754 31.9655 52.1831C31.6578 52.4908 31.2925 52.7348 30.8904 52.9012C30.6865 52.9859 30.3766 53.0627 29.7383 53.1078C29.0841 53.1528 28.2366 53.1528 26.9759 53.1528C25.7152 53.1528 24.8676 53.1528 24.2134 53.1078C23.5751 53.0627 23.2652 52.9859 23.0613 52.9012C22.6593 52.7348 22.294 52.4908 21.9863 52.1831C21.6786 51.8754 21.4346 51.5101 21.2682 51.1081C21.1623 50.8538 21.0749 50.4539 21.0405 49.5084C20.961 47.4107 19.8777 45.3899 17.9549 44.2801C16.032 43.1677 13.741 43.2419 11.8844 44.2219C11.0475 44.6642 10.6581 44.7886 10.3827 44.8231C9.51244 44.9381 8.63217 44.7028 7.9354 44.1689C7.7606 44.0338 7.53812 43.8034 7.18056 43.2737C6.6824 42.4982 6.20808 41.7077 5.75829 40.9032C5.12793 39.812 4.70681 39.0757 4.41812 38.4877C4.13472 37.913 4.04732 37.6058 4.02083 37.3859C3.90584 36.5157 4.14115 35.6354 4.67503 34.9387C4.84453 34.7188 5.14647 34.4434 5.94633 33.9402C7.72616 32.8225 8.93391 30.8731 8.93391 28.6536C8.93391 26.4341 7.72616 24.4848 5.94633 23.3671C5.14647 22.8639 4.84453 22.5884 4.67503 22.3686C4.14115 21.6718 3.90584 20.7916 4.02083 19.9213C4.04732 19.7015 4.13737 19.3916 4.41812 18.8195C4.70681 18.2289 5.12793 17.4953 5.75829 16.4041C6.38864 15.3128 6.81506 14.5792 7.18056 14.0336C7.53812 13.5039 7.7606 13.2735 7.9354 13.1384C8.63217 12.6045 9.51244 12.3692 10.3827 12.4842C10.6581 12.5186 11.0448 12.6431 11.8844 13.0854C13.7384 14.0654 16.032 14.1395 17.9549 13.0271C19.8777 11.9174 20.961 9.89655 21.0405 7.79889C21.0749 6.85336 21.1623 6.45342 21.2682 6.19916C21.6046 5.38606 22.2482 4.74246 23.0613 4.40609Z" fill="#054380"/>
</svg>
