<svg width="56" height="57" viewBox="0 0 56 57" fill="none" xmlns="http://www.w3.org/2000/svg">
<path fill-rule="evenodd" clip-rule="evenodd" d="M54.8839 10.6842L51.7851 9.95324L43.4103 18.2803L38.6668 13.4493L46.8349 4.87993L46.1198 1.73344C44.3937 1.15599 42.5884 0.850408 40.7684 0.827637C38.783 0.797107 36.8126 1.17577 34.98 1.94003C33.2105 2.741 31.611 3.87385 30.2682 5.27721C28.7734 6.69318 27.5896 8.40466 26.792 10.3028C25.2563 14.0806 25.2563 18.3086 26.792 22.0863C18.5095 30.2345 10.3341 38.4908 2.26765 46.8529C1.43335 47.9455 1.03607 49.3081 1.13936 50.6788C1.22077 52.153 1.88374 53.5346 2.98276 54.5205C3.47539 55.0568 4.06337 55.5018 4.71888 55.8236C5.39427 56.1216 6.1213 56.2924 6.85627 56.3281C8.11169 56.3043 9.31546 55.8276 10.2491 54.9893C16.399 49.2009 28.1825 37.3102 34.8767 30.3418C36.6923 31.1126 38.6429 31.5098 40.6135 31.5059C42.597 31.5043 44.5601 31.1052 46.3868 30.3321C48.2135 29.5589 49.8667 28.4275 51.2487 27.0046C54.0875 24.1095 55.673 20.2135 55.6626 16.1588C55.7085 14.3034 55.4453 12.4533 54.8839 10.6842ZM7.84551 52.1726C7.69259 52.3083 7.50827 52.4039 7.30917 52.4507C7.11331 52.4845 6.91308 52.4845 6.71722 52.4507C6.51186 52.4194 6.31627 52.3419 6.14513 52.2242C5.96149 52.1167 5.80621 51.9669 5.69223 51.7872C5.13603 51.2191 4.61559 50.1385 5.13603 49.5306C10.5788 43.7422 21.7862 32.4276 28.7943 25.5109C29.1916 26.0353 29.6286 26.5359 30.0974 27.0046C30.5662 27.4933 31.0707 27.9462 31.607 28.3594C24.8294 35.3118 13.773 46.4914 7.84551 52.1726ZM52.0155 16.1588C52.0234 19.198 50.8395 22.1181 48.7101 24.2952C46.5851 26.3797 43.7272 27.5474 40.7505 27.5474C37.7738 27.5474 34.9159 26.3797 32.7909 24.2952C31.2335 22.6699 30.1696 20.6357 29.723 18.4295C29.2764 16.2232 29.4655 13.9354 30.2682 11.8324C30.8025 10.4011 31.6313 9.09791 32.7009 8.00707C33.7705 6.91622 35.0572 6.06201 36.4777 5.49969C37.8265 4.93518 39.2745 4.64612 40.7366 4.6495H41.7457L34.5271 12.0906V14.8557L42.0556 22.3485H44.6777L52.0155 15.1338V16.1588ZM9.06517 23.4092H15.1476L17.9484 26.2578L20.642 23.5801L18.0001 20.8865V20.7157L18.2265 14.1644L17.3525 12.4283L5.99019 4.95144L3.64225 5.21365L0.340821 8.58658L0.0786133 10.9663L7.38069 22.559L9.06517 23.4092ZM5.31084 8.9799L14.504 15.0345L14.349 19.496H10.0743L4.1468 10.1122L5.31084 8.9799ZM33.5378 36.6308L36.2155 33.9571L48.5552 46.6106C49.5945 47.7029 50.1742 49.1531 50.1742 50.6609C50.1742 52.1687 49.5945 53.6188 48.5552 54.7112C47.7736 55.5136 46.7686 56.062 45.671 56.2852C44.5734 56.5084 43.4341 56.396 42.4012 55.9626C41.7421 55.6703 41.1509 55.2441 40.6651 54.7112L28.1825 41.9862L30.88 39.2926L43.3229 51.9819C43.4902 52.1664 43.6984 52.3093 43.9308 52.399C44.3881 52.5847 44.8997 52.5847 45.357 52.399C45.5893 52.3091 45.7975 52.1663 45.9649 51.9819C46.1388 51.8096 46.2742 51.6024 46.3621 51.374C46.4533 51.1409 46.5017 50.8933 46.5052 50.643C46.5012 50.3932 46.4542 50.1459 46.3661 49.912C46.2781 49.6836 46.1427 49.4764 45.9688 49.3042L33.5378 36.6308Z" fill="#054380"/>
</svg>
