<svg width="64" height="48" viewBox="0 0 64 48" fill="none" xmlns="http://www.w3.org/2000/svg">
<path d="M31.6758 0.753144C34.2414 -0.144637 37.0877 0.220989 39.3467 1.75119L63.2178 17.9221C63.5553 18.1509 63.7578 18.5328 63.7578 18.9406V27.9123C63.7577 31.4319 61.6144 34.5971 58.3467 35.9045L31.6709 46.5744C29.039 47.6272 26.0568 47.3167 23.6982 45.7444L4.02539 32.6291C1.63069 31.0326 0.192445 28.3451 0.192383 25.467V13.7024C0.192559 13.1937 0.505683 12.7375 0.980469 12.5549L31.4287 0.843965L31.6758 0.753144ZM2.65137 25.467C2.65143 27.5228 3.67913 29.4429 5.38965 30.5832L25.0625 43.6985C26.7471 44.8215 28.877 45.0431 30.7568 44.2912L57.4326 33.6213C59.7668 32.6875 61.2977 30.4263 61.2979 27.9123V20.7561L31.8682 32.5285C29.1096 33.6318 25.977 33.2346 23.5811 31.4778L2.65137 16.1291V25.467ZM56.9775 27.3528C57.5801 27.194 58.2167 27.5147 58.4404 28.1106C58.6789 28.7464 58.3573 29.455 57.7217 29.6936L36.7705 37.55C36.1347 37.7882 35.4259 37.4661 35.1875 36.8303C34.9495 36.1946 35.2717 35.4858 35.9072 35.2473L56.8574 27.3908L56.9775 27.3528ZM37.9668 3.7883C36.3012 2.66006 34.1892 2.41777 32.3115 3.13986L3.96484 14.0422L25.0352 29.4944C26.7465 30.7493 28.9846 31.0334 30.9551 30.2453L59.9199 18.6584L37.9668 3.7883Z" fill="#104C85"/>
</svg>
